<svg width="2829" height="2741" viewBox="0 0 2829 2741" fill="none" xmlns="http://www.w3.org/2000/svg">
    <path d="M1889.38 2079.71L1889.38 2079.71C1860.72 2028.08 1795.13 2010.14 1744.21 2039.54L1266.89 2315.12C1215.97 2344.52 1198.81 2409.94 1229.31 2460.8L1889.38 2079.71ZM1889.38 2079.71C1917.87 2130.55 1897.1 2195.21 1846.59 2224.37L1375.99 2496.07C1325.48 2525.23 1259.32 2510.77 1229.31 2460.8L1889.38 2079.71Z" stroke="#DADADA" />
    <path d="M1526.78 2015.33C1473.67 2045.99 1406.85 2029.88 1377.72 1979.42C1348.58 1928.95 1367.83 1863.16 1421.15 1832.38L1922.75 1542.77C1975.86 1512.11 2042.68 1528.22 2071.81 1578.68C2100.95 1629.15 2081.49 1695.07 2028.38 1725.73L1526.78 2015.33Z" stroke="#DADADA" />
    <path d="M488.212 1044.98L200.125 1211.3C148.99 1240.83 83.6473 1223.32 54.1244 1172.18C24.6015 1121.05 42.1101 1055.7 93.2452 1026.18L381.331 859.855C432.466 830.332 497.808 847.841 527.331 898.974C556.64 950.237 539.345 1015.45 488.212 1044.98Z" stroke="#DADADA" />
    <path d="M934.821 1176.74L646.735 1343.07C595.6 1372.59 530.256 1355.08 500.734 1303.95C471.211 1252.81 488.719 1187.47 539.854 1157.94L827.941 991.618C879.076 962.095 944.419 979.603 973.942 1030.74C1003.46 1081.87 985.956 1147.22 934.821 1176.74Z" stroke="#DADADA" />
    <path d="M1911.36 612.931L1195.59 1026.18C1144.45 1055.7 1079.11 1038.2 1049.58 987.061C1020.06 935.926 1037.57 870.583 1088.71 841.06L1804.48 427.809C1855.61 398.286 1920.95 415.794 1950.48 466.928C1979.79 518.191 1962.49 583.409 1911.36 612.931Z" stroke="#DADADA" />
    <path d="M1856.6 1040.22L1140.83 1453.47C1089.69 1482.99 1024.35 1465.48 994.829 1414.35C965.306 1363.21 982.814 1297.87 1033.95 1268.35L1749.72 855.097C1800.86 825.574 1866.2 843.082 1895.72 894.216C1925.03 945.478 1907.52 1010.82 1856.6 1040.22Z" stroke="#DADADA" />
    <path d="M2394.27 1123.45L1678.5 1536.7C1627.36 1566.22 1562.02 1548.71 1532.5 1497.58C1502.97 1446.44 1520.48 1381.1 1571.62 1351.57L2287.39 938.324C2338.52 908.801 2403.87 926.309 2433.39 977.444C2462.91 1028.58 2445.4 1093.92 2394.27 1123.45Z" stroke="#DADADA" />
    <path d="M1166.47 653.379L755.914 890.416C704.779 919.939 639.435 902.431 609.913 851.296C580.39 800.161 597.898 734.817 649.033 705.294L1059.59 468.257C1110.73 438.734 1176.07 456.243 1205.6 507.378C1235.12 558.513 1217.61 623.856 1166.47 653.379Z" stroke="#DADADA" />
    <path d="M1519.37 449.637L1431.58 500.324C1380.45 529.847 1315.1 512.338 1285.58 461.203C1256.06 410.068 1273.57 344.725 1324.7 315.202L1412.49 264.515C1463.63 234.992 1528.97 252.501 1558.49 303.636C1588.02 354.772 1570.51 420.114 1519.37 449.637Z" stroke="#DADADA" />
    <path d="M2215.13 833.223L2127.34 883.909C2076.2 913.432 2010.86 895.923 1981.33 844.788C1951.81 793.653 1969.32 728.31 2020.46 698.787L2108.25 648.101C2159.38 618.578 2224.73 636.086 2254.25 687.222C2283.77 738.357 2266.26 803.7 2215.13 833.223Z" stroke="#DADADA" />
    <path d="M2423.6 1500.17L2296.79 1573.39C2245.65 1602.91 2180.31 1585.4 2150.78 1534.27C2121.26 1483.13 2138.77 1417.79 2189.91 1388.27L2316.72 1315.05C2367.85 1285.53 2433.19 1303.04 2462.72 1354.17C2492.02 1405.43 2474.73 1470.65 2423.6 1500.17Z" stroke="#DADADA" />
    <path d="M1122.75 2643.14L1050.79 2684.69C999.65 2714.21 934.307 2696.7 904.784 2645.57C875.262 2594.43 892.77 2529.09 943.905 2499.57L1015.87 2458.02C1067.01 2428.49 1132.35 2446 1161.87 2497.14C1191.4 2548.27 1173.89 2613.62 1122.75 2643.14Z" stroke="#DADADA" />
    <path d="M2370.78 1924.32L2113.04 2073.12C2061.91 2102.65 1996.56 2085.14 1967.04 2034C1937.52 1982.87 1955.03 1917.52 2006.16 1888L2263.9 1739.2C2315.03 1709.67 2380.38 1727.18 2409.9 1778.32C2439.42 1829.45 2421.91 1894.79 2370.78 1924.32Z" stroke="#DADADA" />
</svg>